# xmcd
#
# Track frame offsets: 
#        150
#        13345
#        29484
#        45321
#        60860
#        78110
#        94107
#        113324
#        129530
#        146868
#
# Disc length: 2165 seconds
#
# Revision: 1
# Processed by: cddbd v1.5.2PL0 Copyright (c) Steve Scherf et al.
# Submitted via: ExactAudioCopy v0.99pb4
#
DISCID=7508730a
DTITLE=Bill Anderson - The Way I Feel
DYEAR=2005
DGENRE=Country
TTITLE0=It's Been A Good Week
TTITLE1=The Way I Feel
TTITLE2=Let It Go
TTITLE3=What Drove Her Away
TTITLE4=Him And Me
TTITLE5=Chip Chip
TTITLE6=Whiskey Lullaby
TTITLE7=Gettin' Ready For You
TTITLE8=Cold All The Time
TTITLE9=God's Country
EXTD=
EXTT0=
EXTT1=
EXTT2=
EXTT3=
EXTT4=
EXTT5=
EXTT6=
EXTT7=
EXTT8=
EXTT9=
PLAYORDER=
